<?xml version="1.0" encoding="utf-8"?>
<!-- Generator: Adobe Illustrator 21.0.2, SVG Export Plug-In . SVG Version: 6.00 Build 0)  -->
<svg version="1.1" id="Слой_1" xmlns="http://www.w3.org/2000/svg" xmlns:xlink="http://www.w3.org/1999/xlink" x="0px" y="0px"
	 viewBox="0 0 135.8 22.5" style="enable-background:new 0 0 135.8 22.5;" xml:space="preserve">
<style type="text/css">
	.st0{fill:none;stroke:#FF3448;stroke-miterlimit:10;}
</style>
<path class="st0" d="M12.7,0.6l2.9,5.8c0.1,0.3,0.4,0.5,0.8,0.6l6.4,0.9c0.5,0.1,0.9,0.6,0.9,1.1c0,0.2-0.1,0.5-0.3,0.6L18.6,14
	c-0.2,0.2-0.4,0.6-0.3,0.9l1.1,6.4c0.1,0.5-0.2,1.1-0.8,1.2c-0.2,0-0.5,0-0.7-0.1l-5.7-3c-0.3-0.2-0.6-0.2-0.9,0l-5.7,3
	c-0.5,0.3-1.1,0.1-1.4-0.4c-0.1-0.2-0.2-0.4-0.1-0.7l1.1-6.4c0.1-0.3,0-0.7-0.3-0.9L0.3,9.6c-0.4-0.4-0.4-1-0.1-1.4
	C0.4,8,0.6,7.8,0.9,7.8l6.4-0.9c0.3,0,0.6-0.3,0.8-0.6l2.9-5.8c0.2-0.5,0.8-0.7,1.3-0.5C12.4,0.2,12.6,0.4,12.7,0.6z"/>
<path class="st0" d="M40.8,0.6l2.8,5.8c0.1,0.3,0.4,0.5,0.8,0.6l6.4,0.9c0.5,0.1,0.9,0.6,0.9,1.1c0,0.2-0.1,0.5-0.3,0.6L46.7,14
	c-0.2,0.2-0.4,0.6-0.3,0.9l1.1,6.4c0.1,0.5-0.2,1.1-0.7,1.2c-0.3,0.1-0.5,0-0.8-0.1l-5.7-3c-0.3-0.2-0.6-0.2-0.9,0l-5.7,3
	c-0.5,0.3-1.1,0.1-1.4-0.4c-0.1-0.2-0.2-0.5-0.1-0.7l1.1-6.4c0.1-0.3,0-0.7-0.3-1l-4.6-4.5c-0.4-0.4-0.4-1-0.1-1.4
	c0.2-0.2,0.4-0.3,0.6-0.3l6.4-0.9c0.3,0,0.6-0.3,0.8-0.6l2.8-5.7c0.2-0.5,0.8-0.7,1.3-0.5C40.5,0.2,40.7,0.4,40.8,0.6z"/>
<path class="st0" d="M68.8,0.6l2.8,5.8c0.1,0.3,0.4,0.5,0.8,0.6l6.4,0.9c0.5,0.1,0.9,0.6,0.9,1.1c0,0.2-0.1,0.5-0.3,0.6L74.8,14
	c-0.2,0.2-0.4,0.6-0.3,0.9l1.1,6.4c0.1,0.5-0.2,1.1-0.8,1.2c-0.2,0-0.5,0-0.7-0.1l-5.7-3c-0.3-0.2-0.6-0.2-0.9,0l-5.7,3
	c-0.5,0.3-1.1,0.1-1.4-0.4c-0.1-0.2-0.2-0.5-0.1-0.7l1.1-6.4c0.1-0.3,0-0.7-0.3-0.9l-4.6-4.5c-0.4-0.4-0.4-1,0-1.4
	c0.1-0.1,0.3-0.2,0.5-0.3l6.4-0.9c0.3,0,0.6-0.3,0.8-0.6L67,0.6c0.2-0.5,0.8-0.7,1.3-0.5C68.5,0.2,68.7,0.4,68.8,0.6z"/>
<path class="st0" d="M96.9,0.6l2.8,5.8c0.1,0.3,0.4,0.5,0.8,0.6l6.4,0.9c0.5,0.1,0.9,0.6,0.9,1.1c0,0.2-0.1,0.5-0.3,0.6l-4.6,4.4
	c-0.2,0.2-0.4,0.6-0.3,0.9l1.1,6.4c0.1,0.5-0.2,1.1-0.8,1.2c-0.2,0-0.5,0-0.7-0.1l-5.7-3c-0.3-0.2-0.6-0.2-0.9,0l-5.7,3
	c-0.5,0.3-1.1,0.1-1.4-0.4c-0.1-0.2-0.2-0.5-0.1-0.7l1.1-6.4c0.1-0.3,0-0.7-0.3-0.9l-4.6-4.5c-0.4-0.4-0.4-1-0.1-1.4
	c0.2-0.2,0.4-0.3,0.6-0.3l6.4-0.9c0.3,0,0.6-0.3,0.8-0.6l2.8-5.7c0.2-0.5,0.8-0.7,1.3-0.5C96.6,0.2,96.8,0.4,96.9,0.6z"/>
<path class="st0" d="M125,0.6l2.8,5.8c0.1,0.3,0.4,0.5,0.8,0.6l6.4,0.9c0.5,0.1,0.9,0.6,0.9,1.1c0,0.2-0.1,0.5-0.3,0.6l-4.7,4.4
	c-0.2,0.2-0.4,0.6-0.3,0.9l1.1,6.4c0.1,0.5-0.2,1.1-0.8,1.2c-0.2,0-0.5,0-0.7-0.1l-5.7-3c-0.3-0.2-0.6-0.2-0.9,0l-5.7,3
	c-0.5,0.3-1.1,0.1-1.4-0.4c-0.1-0.2-0.2-0.5-0.1-0.7l1.1-6.4c0.1-0.3,0-0.7-0.3-0.9l-4.6-4.5c-0.4-0.4-0.4-1-0.1-1.4
	c0.2-0.2,0.4-0.3,0.6-0.3l6.4-0.9c0.3,0,0.6-0.3,0.8-0.6l2.8-5.7c0.2-0.5,0.8-0.8,1.3-0.6C124.7,0.1,124.9,0.3,125,0.6z"/>
</svg>
